<mxfile host="app.diagrams.net" modified="2023-04-21T08:02:45.057Z" agent="Mozilla/5.0 (Macintosh; Intel Mac OS X 10.15; rv:109.0) Gecko/20100101 Firefox/111.0" etag="wxdzMmCUnwhnAPBcFIcu" version="21.2.1" type="device">
  <diagram id="R2lEEEUBdFMjLlhIrx00" name="Page-1">
    <mxGraphModel dx="1434" dy="794" grid="1" gridSize="10" guides="1" tooltips="1" connect="1" arrows="1" fold="1" page="1" pageScale="1" pageWidth="850" pageHeight="1100" math="0" shadow="0" extFonts="Permanent Marker^https://fonts.googleapis.com/css?family=Permanent+Marker">
      <root>
        <mxCell id="0" />
        <mxCell id="1" parent="0" />
        <mxCell id="7HfnvCUrbNojlMPrx9GS-18" value="&lt;div&gt;Articolo&lt;/div&gt;" style="rounded=1;arcSize=10;whiteSpace=wrap;html=1;align=center;" vertex="1" parent="1">
          <mxGeometry x="480" y="470" width="100" height="40" as="geometry" />
        </mxCell>
        <mxCell id="7HfnvCUrbNojlMPrx9GS-19" value="&lt;div&gt;Asta&lt;/div&gt;" style="rounded=1;arcSize=10;whiteSpace=wrap;html=1;align=center;" vertex="1" parent="1">
          <mxGeometry x="480" y="160" width="100" height="40" as="geometry" />
        </mxCell>
        <mxCell id="7HfnvCUrbNojlMPrx9GS-20" value="&lt;div&gt;Offerta&lt;/div&gt;" style="rounded=1;arcSize=10;whiteSpace=wrap;html=1;align=center;" vertex="1" parent="1">
          <mxGeometry x="130" y="160" width="100" height="40" as="geometry" />
        </mxCell>
        <mxCell id="7HfnvCUrbNojlMPrx9GS-21" value="Utente" style="rounded=1;arcSize=10;whiteSpace=wrap;html=1;align=center;" vertex="1" parent="1">
          <mxGeometry x="130" y="470" width="100" height="40" as="geometry" />
        </mxCell>
        <mxCell id="7HfnvCUrbNojlMPrx9GS-22" value="&lt;div&gt;Codice&lt;/div&gt;" style="ellipse;whiteSpace=wrap;html=1;align=center;fontStyle=4;" vertex="1" parent="1">
          <mxGeometry x="670" y="470" width="100" height="40" as="geometry" />
        </mxCell>
        <mxCell id="7HfnvCUrbNojlMPrx9GS-23" value="Prezzo" style="ellipse;whiteSpace=wrap;html=1;align=center;" vertex="1" parent="1">
          <mxGeometry x="670" y="530" width="100" height="40" as="geometry" />
        </mxCell>
        <mxCell id="7HfnvCUrbNojlMPrx9GS-24" value="Immagine" style="ellipse;whiteSpace=wrap;html=1;align=center;" vertex="1" parent="1">
          <mxGeometry x="630" y="580" width="100" height="40" as="geometry" />
        </mxCell>
        <mxCell id="7HfnvCUrbNojlMPrx9GS-25" value="Descrizione" style="ellipse;whiteSpace=wrap;html=1;align=center;" vertex="1" parent="1">
          <mxGeometry x="530" y="600" width="100" height="40" as="geometry" />
        </mxCell>
        <mxCell id="7HfnvCUrbNojlMPrx9GS-26" value="Nome" style="ellipse;whiteSpace=wrap;html=1;align=center;" vertex="1" parent="1">
          <mxGeometry x="370" y="560" width="100" height="40" as="geometry" />
        </mxCell>
        <mxCell id="7HfnvCUrbNojlMPrx9GS-27" value="" style="endArrow=none;html=1;rounded=0;" edge="1" parent="1" source="7HfnvCUrbNojlMPrx9GS-26" target="7HfnvCUrbNojlMPrx9GS-18">
          <mxGeometry relative="1" as="geometry">
            <mxPoint x="340" y="410" as="sourcePoint" />
            <mxPoint x="500" y="410" as="targetPoint" />
          </mxGeometry>
        </mxCell>
        <mxCell id="7HfnvCUrbNojlMPrx9GS-29" value="" style="endArrow=none;html=1;rounded=0;" edge="1" parent="1" source="7HfnvCUrbNojlMPrx9GS-24" target="7HfnvCUrbNojlMPrx9GS-18">
          <mxGeometry relative="1" as="geometry">
            <mxPoint x="340" y="410" as="sourcePoint" />
            <mxPoint x="500" y="410" as="targetPoint" />
          </mxGeometry>
        </mxCell>
        <mxCell id="7HfnvCUrbNojlMPrx9GS-30" value="" style="endArrow=none;html=1;rounded=0;exitX=0.5;exitY=0;exitDx=0;exitDy=0;" edge="1" parent="1" source="7HfnvCUrbNojlMPrx9GS-25" target="7HfnvCUrbNojlMPrx9GS-18">
          <mxGeometry relative="1" as="geometry">
            <mxPoint x="340" y="410" as="sourcePoint" />
            <mxPoint x="500" y="410" as="targetPoint" />
          </mxGeometry>
        </mxCell>
        <mxCell id="7HfnvCUrbNojlMPrx9GS-31" value="" style="endArrow=none;html=1;rounded=0;" edge="1" parent="1" source="7HfnvCUrbNojlMPrx9GS-18" target="7HfnvCUrbNojlMPrx9GS-23">
          <mxGeometry relative="1" as="geometry">
            <mxPoint x="340" y="410" as="sourcePoint" />
            <mxPoint x="500" y="410" as="targetPoint" />
          </mxGeometry>
        </mxCell>
        <mxCell id="7HfnvCUrbNojlMPrx9GS-32" value="" style="endArrow=none;html=1;rounded=0;" edge="1" parent="1" source="7HfnvCUrbNojlMPrx9GS-22" target="7HfnvCUrbNojlMPrx9GS-18">
          <mxGeometry relative="1" as="geometry">
            <mxPoint x="340" y="410" as="sourcePoint" />
            <mxPoint x="500" y="410" as="targetPoint" />
          </mxGeometry>
        </mxCell>
        <mxCell id="7HfnvCUrbNojlMPrx9GS-33" value="Contiene" style="shape=rhombus;perimeter=rhombusPerimeter;whiteSpace=wrap;html=1;align=center;" vertex="1" parent="1">
          <mxGeometry x="470" y="310" width="120" height="60" as="geometry" />
        </mxCell>
        <mxCell id="7HfnvCUrbNojlMPrx9GS-38" value="" style="endArrow=none;html=1;rounded=0;exitX=0.5;exitY=1;exitDx=0;exitDy=0;" edge="1" parent="1" source="7HfnvCUrbNojlMPrx9GS-19" target="7HfnvCUrbNojlMPrx9GS-33">
          <mxGeometry relative="1" as="geometry">
            <mxPoint x="340" y="440" as="sourcePoint" />
            <mxPoint x="500" y="440" as="targetPoint" />
          </mxGeometry>
        </mxCell>
        <mxCell id="7HfnvCUrbNojlMPrx9GS-39" value="n" style="text;html=1;align=center;verticalAlign=middle;resizable=0;points=[];autosize=1;strokeColor=none;fillColor=none;" vertex="1" parent="1">
          <mxGeometry x="525" y="200" width="30" height="30" as="geometry" />
        </mxCell>
        <mxCell id="7HfnvCUrbNojlMPrx9GS-40" value="1" style="text;html=1;align=center;verticalAlign=middle;resizable=0;points=[];autosize=1;strokeColor=none;fillColor=none;" vertex="1" parent="1">
          <mxGeometry x="525" y="288" width="30" height="30" as="geometry" />
        </mxCell>
        <mxCell id="7HfnvCUrbNojlMPrx9GS-41" value="" style="endArrow=none;html=1;rounded=0;entryX=0.5;entryY=1;entryDx=0;entryDy=0;exitX=0.5;exitY=0;exitDx=0;exitDy=0;" edge="1" parent="1" source="7HfnvCUrbNojlMPrx9GS-18" target="7HfnvCUrbNojlMPrx9GS-33">
          <mxGeometry relative="1" as="geometry">
            <mxPoint x="340" y="440" as="sourcePoint" />
            <mxPoint x="500" y="440" as="targetPoint" />
          </mxGeometry>
        </mxCell>
        <mxCell id="7HfnvCUrbNojlMPrx9GS-42" value="1" style="text;html=1;align=center;verticalAlign=middle;resizable=0;points=[];autosize=1;strokeColor=none;fillColor=none;" vertex="1" parent="1">
          <mxGeometry x="525" y="440" width="30" height="30" as="geometry" />
        </mxCell>
        <mxCell id="7HfnvCUrbNojlMPrx9GS-43" value="n" style="text;html=1;align=center;verticalAlign=middle;resizable=0;points=[];autosize=1;strokeColor=none;fillColor=none;" vertex="1" parent="1">
          <mxGeometry x="525" y="370" width="30" height="30" as="geometry" />
        </mxCell>
        <mxCell id="7HfnvCUrbNojlMPrx9GS-44" value="Codice" style="ellipse;whiteSpace=wrap;html=1;align=center;fontStyle=4;" vertex="1" parent="1">
          <mxGeometry x="690" y="90" width="100" height="40" as="geometry" />
        </mxCell>
        <mxCell id="7HfnvCUrbNojlMPrx9GS-45" value="prezzo" style="ellipse;whiteSpace=wrap;html=1;align=center;" vertex="1" parent="1">
          <mxGeometry x="110" y="50" width="100" height="40" as="geometry" />
        </mxCell>
        <mxCell id="7HfnvCUrbNojlMPrx9GS-46" value="DisponibilitÃ " style="ellipse;whiteSpace=wrap;html=1;align=center;" vertex="1" parent="1">
          <mxGeometry x="425" y="600" width="100" height="40" as="geometry" />
        </mxCell>
        <mxCell id="7HfnvCUrbNojlMPrx9GS-47" value="&lt;div&gt;Scadenza_ora&lt;/div&gt;" style="ellipse;whiteSpace=wrap;html=1;align=center;" vertex="1" parent="1">
          <mxGeometry x="460" y="60" width="100" height="40" as="geometry" />
        </mxCell>
        <mxCell id="7HfnvCUrbNojlMPrx9GS-48" value="Scadenza_data" style="ellipse;whiteSpace=wrap;html=1;align=center;" vertex="1" parent="1">
          <mxGeometry x="640" y="220" width="100" height="40" as="geometry" />
        </mxCell>
        <mxCell id="7HfnvCUrbNojlMPrx9GS-49" value="Rialzo_minimo" style="ellipse;whiteSpace=wrap;html=1;align=center;" vertex="1" parent="1">
          <mxGeometry x="580" y="60" width="100" height="40" as="geometry" />
        </mxCell>
        <mxCell id="7HfnvCUrbNojlMPrx9GS-50" value="&lt;div&gt;Prezzo_iniziale&lt;/div&gt;" style="ellipse;whiteSpace=wrap;html=1;align=center;" vertex="1" parent="1">
          <mxGeometry x="640" y="160" width="100" height="40" as="geometry" />
        </mxCell>
        <mxCell id="7HfnvCUrbNojlMPrx9GS-52" value="&lt;div&gt;Indirizzo_spedizione&lt;/div&gt;" style="ellipse;whiteSpace=wrap;html=1;align=center;" vertex="1" parent="1">
          <mxGeometry x="150" y="540" width="100" height="40" as="geometry" />
        </mxCell>
        <mxCell id="7HfnvCUrbNojlMPrx9GS-53" value="Aggiudicata" style="ellipse;whiteSpace=wrap;html=1;align=center;" vertex="1" parent="1">
          <mxGeometry x="20" y="190" width="100" height="40" as="geometry" />
        </mxCell>
        <mxCell id="7HfnvCUrbNojlMPrx9GS-54" value="Data" style="ellipse;whiteSpace=wrap;html=1;align=center;fontStyle=4;" vertex="1" parent="1">
          <mxGeometry x="20" y="100" width="100" height="40" as="geometry" />
        </mxCell>
        <mxCell id="7HfnvCUrbNojlMPrx9GS-55" value="Ora" style="ellipse;whiteSpace=wrap;html=1;align=center;fontStyle=4;" vertex="1" parent="1">
          <mxGeometry x="230" y="60" width="100" height="40" as="geometry" />
        </mxCell>
        <mxCell id="7HfnvCUrbNojlMPrx9GS-56" value="Username" style="ellipse;whiteSpace=wrap;html=1;align=center;fontStyle=4;" vertex="1" parent="1">
          <mxGeometry x="20" y="440" width="100" height="40" as="geometry" />
        </mxCell>
        <mxCell id="7HfnvCUrbNojlMPrx9GS-57" value="Riceve" style="shape=rhombus;perimeter=rhombusPerimeter;whiteSpace=wrap;html=1;align=center;" vertex="1" parent="1">
          <mxGeometry x="300" y="150" width="120" height="60" as="geometry" />
        </mxCell>
        <mxCell id="7HfnvCUrbNojlMPrx9GS-58" value="Propone" style="shape=rhombus;perimeter=rhombusPerimeter;whiteSpace=wrap;html=1;align=center;" vertex="1" parent="1">
          <mxGeometry x="120" y="310" width="120" height="60" as="geometry" />
        </mxCell>
        <mxCell id="7HfnvCUrbNojlMPrx9GS-59" value="" style="endArrow=none;html=1;rounded=0;" edge="1" parent="1" source="7HfnvCUrbNojlMPrx9GS-21" target="7HfnvCUrbNojlMPrx9GS-52">
          <mxGeometry relative="1" as="geometry">
            <mxPoint x="340" y="350" as="sourcePoint" />
            <mxPoint x="500" y="350" as="targetPoint" />
          </mxGeometry>
        </mxCell>
        <mxCell id="7HfnvCUrbNojlMPrx9GS-60" value="" style="endArrow=none;html=1;rounded=0;entryX=0.5;entryY=1;entryDx=0;entryDy=0;" edge="1" parent="1" source="7HfnvCUrbNojlMPrx9GS-21" target="7HfnvCUrbNojlMPrx9GS-58">
          <mxGeometry relative="1" as="geometry">
            <mxPoint x="340" y="350" as="sourcePoint" />
            <mxPoint x="500" y="350" as="targetPoint" />
          </mxGeometry>
        </mxCell>
        <mxCell id="7HfnvCUrbNojlMPrx9GS-61" value="" style="endArrow=none;html=1;rounded=0;" edge="1" parent="1" source="7HfnvCUrbNojlMPrx9GS-20" target="7HfnvCUrbNojlMPrx9GS-58">
          <mxGeometry relative="1" as="geometry">
            <mxPoint x="340" y="350" as="sourcePoint" />
            <mxPoint x="500" y="350" as="targetPoint" />
          </mxGeometry>
        </mxCell>
        <mxCell id="7HfnvCUrbNojlMPrx9GS-62" value="" style="endArrow=none;html=1;rounded=0;" edge="1" parent="1" source="7HfnvCUrbNojlMPrx9GS-57" target="7HfnvCUrbNojlMPrx9GS-20">
          <mxGeometry relative="1" as="geometry">
            <mxPoint x="340" y="350" as="sourcePoint" />
            <mxPoint x="500" y="350" as="targetPoint" />
          </mxGeometry>
        </mxCell>
        <mxCell id="7HfnvCUrbNojlMPrx9GS-63" value="" style="endArrow=none;html=1;rounded=0;" edge="1" parent="1" source="7HfnvCUrbNojlMPrx9GS-19" target="7HfnvCUrbNojlMPrx9GS-57">
          <mxGeometry relative="1" as="geometry">
            <mxPoint x="340" y="350" as="sourcePoint" />
            <mxPoint x="500" y="350" as="targetPoint" />
          </mxGeometry>
        </mxCell>
        <mxCell id="7HfnvCUrbNojlMPrx9GS-64" value="" style="endArrow=none;html=1;rounded=0;" edge="1" parent="1" source="7HfnvCUrbNojlMPrx9GS-44" target="7HfnvCUrbNojlMPrx9GS-19">
          <mxGeometry relative="1" as="geometry">
            <mxPoint x="340" y="350" as="sourcePoint" />
            <mxPoint x="500" y="350" as="targetPoint" />
          </mxGeometry>
        </mxCell>
        <mxCell id="7HfnvCUrbNojlMPrx9GS-65" value="" style="endArrow=none;html=1;rounded=0;" edge="1" parent="1" source="7HfnvCUrbNojlMPrx9GS-49" target="7HfnvCUrbNojlMPrx9GS-19">
          <mxGeometry relative="1" as="geometry">
            <mxPoint x="340" y="350" as="sourcePoint" />
            <mxPoint x="500" y="350" as="targetPoint" />
          </mxGeometry>
        </mxCell>
        <mxCell id="7HfnvCUrbNojlMPrx9GS-66" value="" style="endArrow=none;html=1;rounded=0;" edge="1" parent="1" source="7HfnvCUrbNojlMPrx9GS-47" target="7HfnvCUrbNojlMPrx9GS-19">
          <mxGeometry relative="1" as="geometry">
            <mxPoint x="340" y="350" as="sourcePoint" />
            <mxPoint x="500" y="350" as="targetPoint" />
          </mxGeometry>
        </mxCell>
        <mxCell id="7HfnvCUrbNojlMPrx9GS-67" value="" style="endArrow=none;html=1;rounded=0;" edge="1" parent="1" source="7HfnvCUrbNojlMPrx9GS-50" target="7HfnvCUrbNojlMPrx9GS-19">
          <mxGeometry relative="1" as="geometry">
            <mxPoint x="340" y="350" as="sourcePoint" />
            <mxPoint x="500" y="350" as="targetPoint" />
          </mxGeometry>
        </mxCell>
        <mxCell id="7HfnvCUrbNojlMPrx9GS-68" value="" style="endArrow=none;html=1;rounded=0;" edge="1" parent="1" source="7HfnvCUrbNojlMPrx9GS-48" target="7HfnvCUrbNojlMPrx9GS-19">
          <mxGeometry relative="1" as="geometry">
            <mxPoint x="340" y="350" as="sourcePoint" />
            <mxPoint x="500" y="350" as="targetPoint" />
          </mxGeometry>
        </mxCell>
        <mxCell id="7HfnvCUrbNojlMPrx9GS-71" value="" style="endArrow=none;html=1;rounded=0;exitX=1;exitY=1;exitDx=0;exitDy=0;" edge="1" parent="1" source="7HfnvCUrbNojlMPrx9GS-53" target="7HfnvCUrbNojlMPrx9GS-20">
          <mxGeometry relative="1" as="geometry">
            <mxPoint x="340" y="360" as="sourcePoint" />
            <mxPoint x="500" y="360" as="targetPoint" />
          </mxGeometry>
        </mxCell>
        <mxCell id="7HfnvCUrbNojlMPrx9GS-72" value="" style="endArrow=none;html=1;rounded=0;" edge="1" parent="1" source="7HfnvCUrbNojlMPrx9GS-20" target="7HfnvCUrbNojlMPrx9GS-54">
          <mxGeometry relative="1" as="geometry">
            <mxPoint x="340" y="360" as="sourcePoint" />
            <mxPoint x="500" y="360" as="targetPoint" />
          </mxGeometry>
        </mxCell>
        <mxCell id="7HfnvCUrbNojlMPrx9GS-73" value="" style="endArrow=none;html=1;rounded=0;" edge="1" parent="1" source="7HfnvCUrbNojlMPrx9GS-45" target="7HfnvCUrbNojlMPrx9GS-20">
          <mxGeometry relative="1" as="geometry">
            <mxPoint x="340" y="360" as="sourcePoint" />
            <mxPoint x="500" y="360" as="targetPoint" />
          </mxGeometry>
        </mxCell>
        <mxCell id="7HfnvCUrbNojlMPrx9GS-74" value="" style="endArrow=none;html=1;rounded=0;" edge="1" parent="1" source="7HfnvCUrbNojlMPrx9GS-20" target="7HfnvCUrbNojlMPrx9GS-55">
          <mxGeometry relative="1" as="geometry">
            <mxPoint x="340" y="360" as="sourcePoint" />
            <mxPoint x="500" y="360" as="targetPoint" />
          </mxGeometry>
        </mxCell>
        <mxCell id="7HfnvCUrbNojlMPrx9GS-75" value="" style="endArrow=none;html=1;rounded=0;" edge="1" parent="1" source="7HfnvCUrbNojlMPrx9GS-21" target="7HfnvCUrbNojlMPrx9GS-56">
          <mxGeometry relative="1" as="geometry">
            <mxPoint x="340" y="360" as="sourcePoint" />
            <mxPoint x="500" y="360" as="targetPoint" />
          </mxGeometry>
        </mxCell>
        <mxCell id="7HfnvCUrbNojlMPrx9GS-76" value="" style="endArrow=none;html=1;rounded=0;" edge="1" parent="1" source="7HfnvCUrbNojlMPrx9GS-18" target="7HfnvCUrbNojlMPrx9GS-46">
          <mxGeometry relative="1" as="geometry">
            <mxPoint x="340" y="360" as="sourcePoint" />
            <mxPoint x="500" y="360" as="targetPoint" />
          </mxGeometry>
        </mxCell>
        <mxCell id="7HfnvCUrbNojlMPrx9GS-77" value="n" style="text;html=1;align=center;verticalAlign=middle;resizable=0;points=[];autosize=1;strokeColor=none;fillColor=none;" vertex="1" parent="1">
          <mxGeometry x="175" y="438" width="30" height="30" as="geometry" />
        </mxCell>
        <mxCell id="7HfnvCUrbNojlMPrx9GS-78" value="1" style="text;html=1;align=center;verticalAlign=middle;resizable=0;points=[];autosize=1;strokeColor=none;fillColor=none;" vertex="1" parent="1">
          <mxGeometry x="175" y="370" width="30" height="30" as="geometry" />
        </mxCell>
        <mxCell id="7HfnvCUrbNojlMPrx9GS-79" value="1" style="text;html=1;align=center;verticalAlign=middle;resizable=0;points=[];autosize=1;strokeColor=none;fillColor=none;" vertex="1" parent="1">
          <mxGeometry x="175" y="288" width="30" height="30" as="geometry" />
        </mxCell>
        <mxCell id="7HfnvCUrbNojlMPrx9GS-80" value="n" style="text;html=1;align=center;verticalAlign=middle;resizable=0;points=[];autosize=1;strokeColor=none;fillColor=none;" vertex="1" parent="1">
          <mxGeometry x="175" y="200" width="30" height="30" as="geometry" />
        </mxCell>
        <mxCell id="7HfnvCUrbNojlMPrx9GS-81" value="1" style="text;html=1;align=center;verticalAlign=middle;resizable=0;points=[];autosize=1;strokeColor=none;fillColor=none;" vertex="1" parent="1">
          <mxGeometry x="225" y="178" width="30" height="30" as="geometry" />
        </mxCell>
        <mxCell id="7HfnvCUrbNojlMPrx9GS-82" value="1" style="text;html=1;align=center;verticalAlign=middle;resizable=0;points=[];autosize=1;strokeColor=none;fillColor=none;" vertex="1" parent="1">
          <mxGeometry x="285" y="178" width="30" height="30" as="geometry" />
        </mxCell>
        <mxCell id="7HfnvCUrbNojlMPrx9GS-83" value="1" style="text;html=1;align=center;verticalAlign=middle;resizable=0;points=[];autosize=1;strokeColor=none;fillColor=none;" vertex="1" parent="1">
          <mxGeometry x="415" y="178" width="30" height="30" as="geometry" />
        </mxCell>
        <mxCell id="7HfnvCUrbNojlMPrx9GS-84" value="n" style="text;html=1;align=center;verticalAlign=middle;resizable=0;points=[];autosize=1;strokeColor=none;fillColor=none;" vertex="1" parent="1">
          <mxGeometry x="455" y="178" width="30" height="30" as="geometry" />
        </mxCell>
      </root>
    </mxGraphModel>
  </diagram>
</mxfile>
